<?xml version="1.0" encoding="utf-8"?>
<svg viewBox="0 0.001 1637.609 517.954" width="1637.609" height="517.954" xmlns="http://www.w3.org/2000/svg">
  <g id="layer1">
    <g id="g4">
      <path fill-rule="evenodd" clip-rule="evenodd" fill="#FEFEFE" d="M417.093,240.488c0.021-0.878,0.062-1.757,0.062-2.635    c0.003-52.714,0.003-105.429,0.003-158.143c0-2.874-0.001-2.874-2.908-2.874c-105.428,0-210.857,0-316.286,0    c-2.886,0-2.886,0-2.886,2.896c0,66.313,0,132.625,0.002,198.938c0,0.879,0.028,1.759,0.043,2.638    c-0.016,0.398-0.044,0.797-0.044,1.196c-0.001,53.515-0.001,107.031-0.001,160.546c0,2.906,0,2.906,2.904,2.906    c105.431,0,210.862,0,316.293,0c2.881,0,2.881,0,2.881-2.928c0.001-66.715,0.001-133.429-0.002-200.144    C417.154,242.085,417.114,241.287,417.093,240.488z" id="path6"/>
      <path fill-rule="evenodd" clip-rule="evenodd" fill="#C45A12" d="M226.597,0.036c3.21,19.255,6.421,38.51,9.661,57.935    c-0.712,0.054-1.322,0.14-1.932,0.14c-54.154-0.015-108.309-0.036-162.463-0.06c-4.479-0.002-8.958-0.012-13.438-0.046    c-1.83-0.014-1.795,0.066-1.778,1.656c0.006,0.56,0.001,1.12,0,1.68c-0.025,30.796-0.049,61.593-0.077,92.389    c-0.009,10.558-0.015,21.117-0.051,31.675c-0.076,21.751-0.171,43.502-0.259,65.253c0,0.176-0.063,2.769-0.063,2.769    l-56.107,8.538c0,0,0.009-3.279,0.009-3.918c0-36.957,0.004-73.913-0.001-110.869c-0.006-36.476-0.014-72.952-0.06-109.428    C0.038,36.222-0.05,27.615,0.042,24.022C0.479,7.008,7.729,0.008,28.192,0.043c2.87,0.005,10.311,0.089,15.805-0.007    C107.197,0.036,163.397,0.036,226.597,0.036z" id="path8"/>
      <path fill-rule="evenodd" clip-rule="evenodd" fill="#7C7C7C" d="M22.597,517.955c-14.368-0.03-21.618-7.947-21.63-23.458    c-0.001-1.982-0.45-199.967-0.45-199.967c0,0,56.587-7.584,56.587-7.584s0.021,101.814,0.032,151.731    c0.001,7.199,0.009,14.399,0.024,21.599c0.004,1.928,0.022,1.949,1.951,1.948c20.319-0.004,40.638,0.026,60.957-0.035    c23.667-0.071,47.335-0.263,71.002-0.334c20.719-0.062,63.826-0.013,63.826-0.013l9.407,56.088    C264.304,517.93,103.077,517.955,22.597,517.955z" id="path10"/>
      <path fill-rule="evenodd" clip-rule="evenodd" fill="#239BD1" d="M286.117,517.955c-0.567-3.854-5.271-34.436-5.968-38.916    c-0.745-4.795-2.482-16.096-2.661-17.219c0.902,0,1.679,0,2.457,0c42.713,0.009,85.426,0.016,128.14,0.027    c14.798,0.004,29.595,0.021,44.393,0.033c0.479,0,0.961-0.028,1.438,0.004c0.888,0.06,1.356-0.262,1.287-1.221    c-0.041-0.557-0.005-1.118-0.005-1.679c-0.012-30.555-0.021-61.11-0.037-91.665c-0.017-33.434-0.432-99.313-0.432-99.313    c0,0,56.176-7.073,56.176-7.073s-0.15,156.215-0.144,235.083c0.017,15.318-4.681,21.895-19.205,21.938    C423.077,517.955,354.598,517.955,286.117,517.955z" id="path12"/>
      <path fill-rule="evenodd" clip-rule="evenodd" fill="#FECB00" d="M487.237,0.036c17.313-0.012,23.485,8.339,23.505,22.752    c0.021,13.997,0.015,27.994,0.015,41.991c0,51.749,0.473,164.979,0.473,164.979l-55.75,6.25c0,0-0.406-13.141-0.402-16.82    c0.03-27.354,0.06-54.708,0.092-82.061c0.01-9.278,0.001-18.556,0.045-27.833c0.077-16.627,0.189-33.255,0.286-49.882    c0.003-0.4,0.01-0.8-0.002-1.199c-0.044-1.491-0.046-1.519-1.644-1.53c-3.679-0.026-7.357-0.027-11.037-0.031    c-23.354-0.023-46.709-0.045-70.064-0.065c-16.876-0.015-33.752,0.004-50.628-0.048c-21.186-0.065-42.372-0.188-63.558-0.283    c-1.74-0.008-1.972,0.318-2.266-2.06c-0.78-6.318-1.785-12.609-2.684-18.913c-0.697-4.888-1.357-9.78-2.051-14.668    c-0.738-5.202-1.501-10.4-2.241-15.602c-0.235-1.656-0.434-3.317-0.649-4.976c10.881,0,21.76,0,32.641,0    c10.112-0.133,178.39,0.16,179.04,0C469.317,0.036,478.276,0.036,487.237,0.036z" id="path14"/>
      <path fill-rule="evenodd" clip-rule="evenodd" fill="#404040" d="M95.078,241.518c0-13.316,0-26.631,0-39.947    c0-26.632,0-53.263,0-79.895c0-13.316,0-26.632,0-39.947c0-0.532,0.059-4.874,0.059-4.874s7.477-0.02,8.426-0.02    c6.664,0,13.328,0,19.993,0c26.657,0,53.314,0,79.971,0s53.314,0,79.972,0c26.656,0,53.313,0,79.971,0c13.328,0,26.657,0,39.985,0    c3.332,0,6.664,0,9.996,0c0.588,0,3.626-0.061,3.626-0.061s0.082,3.989,0.082,4.532c0,1.731,0,11.848,0,15.176    c0,26.623,0,53.247-0.001,79.87c0,13.312-0.067,64.187-0.067,64.187s-3.695,0.411-5.353,0.611    c-3.194,0.387-6.381,0.823-9.569,1.252c-12.948,1.743-45.395,5.777-48.658,6.154c-3.246,0.375-42.07,5.291-48.596,6.214    c-6.503,0.92-13.004,1.705-19.524,2.474c-3.268,0.385-6.511,0.945-9.771,1.386c-3.191,0.433-6.402,0.706-9.6,1.09    c-3.245,0.391-6.482,0.839-9.722,1.273c-0.647,0.087-1.771,0.501-2.167-0.05c-0.444-0.62-0.891-1.237-1.337-1.854    c-0.969-1.338-1.941-2.672-2.908-4.011c-3.534-4.891-7.125-9.626-8.569-15.592c-1.124-4.64-0.976-9.278,0.919-13.704    c1.952-4.56,5.357-7.854,9.913-9.763c5.525-2.314,11.582-2.662,17.385-1.252c3.035,0.737,5.715,2.037,8.491,3.425    c0.521,0.26,1.129,0.844,1.131-0.029c0.001-0.717-0.021-1.435-0.005-2.152c0.024-1.152,0.314-2.297-0.855-2.969    c-1.212-0.696-2.678-1.116-4.002-1.543c-1.513-0.488-3.053-0.89-4.613-1.192c-2.952-0.572-5.972-0.783-8.973-0.605    c-9.867,0.584-19.446,5.208-23.531,14.632c-2.29,5.285-2.417,11.184-0.848,16.684c2.073,7.269,6.276,13.37,10.49,19.534    c-1.282,0.699-2.564,1.398-3.847,2.097c-0.308,0.167-0.614,0.335-0.922,0.502c-0.389,0.002-0.777-0.01-1.166-0.018    c-0.905-0.021-1.787,0.024-2.685,0.147c-3.156,0.431-22.353,3.062-28.836,3.716c-6.473,0.654-32.119,3.994-38.477,4.864    c-12.658,1.732-75.763,9.447-75.763,9.447S95.079,254.776,95.078,241.518z" id="path16"/>
      <path fill-rule="evenodd" clip-rule="evenodd" fill="#404040" d="M143.756,178.166c-0.541-2.4-0.995-4.995-1.716-7.513    c-3.183-11.109-6.443-22.197-9.675-33.292c-1.739-5.969-3.474-11.938-5.219-17.904c-0.479-1.635-0.491-1.637-2.326-1.655    c-1.2-0.011-2.401-0.031-3.6,0.006c-1.248,0.04-1.361,0.212-1.069,1.445c0.091,0.387,0.25,0.757,0.365,1.139    c6.276,20.831,12.549,41.663,18.83,62.493c0.366,1.215,0.454,2.902,1.289,3.483c0.939,0.655,2.578,0.356,3.913,0.379    c1.814,0.031,1.806-0.01,2.393-1.825c3.755-11.6,7.523-23.194,11.268-34.797c1.958-6.067,3.879-12.146,5.811-18.221    c0.196-0.616,0.357-1.242,0.535-1.864c0.695,1.747,1.009,3.443,1.483,5.093c4.608,16.006,9.244,32.005,13.872,48.006    c1.049,3.629,1.049,3.629,4.629,3.62c2.218-0.006,2.219-0.005,2.89-2.165c6.546-21.084,13.091-42.169,19.637-63.254    c1.099-3.541,1.097-3.542-2.481-3.542c-0.24,0-0.48-0.001-0.72,0c-2.13,0.01-2.12,0.013-2.723,2.053    c-5.756,19.474-11.766,38.874-17.274,58.478c-0.43-2.013-0.748-4.052-1.304-6.024c-4.911-17.414-9.882-34.81-14.783-52.226    c-0.798-2.835-0.799-2.14-3.043-2.305c-1.324-0.097-1.993,0.29-2.404,1.638c-2.046,6.708-4.197,13.383-6.315,20.068    C151.908,152.455,147.794,165.428,143.756,178.166z" id="path18"/>
      <path fill-rule="evenodd" clip-rule="evenodd" fill="#404040" d="M282.14,152.298c-0.437-3.693-0.674-7.424-1.354-11.071    c-1.126-6.041-3.799-11.41-7.951-15.974c-5.252-5.771-12.092-8.24-19.616-8.985c-4.037-0.399-8.103-0.06-12.068,0.921    c-9.232,2.285-16.07,7.654-20.403,16.119c-3.139,6.133-3.91,12.831-4.125,19.57c-0.09,2.816,0.377,5.686,0.882,8.478    c1.516,8.39,5.221,15.543,12.041,20.94c5.896,4.666,12.818,5.997,20.021,6.274c2.494,0.096,5.03-0.467,7.523-0.876    c3.387-0.556,6.487-1.894,9.466-3.604c2.687-1.542,4.712-3.789,6.827-5.946c3.126-3.189,5.079-7.114,6.425-11.287    C281.321,162.164,282.063,157.305,282.14,152.298z" id="path20"/>
      <path fill-rule="evenodd" clip-rule="evenodd" fill="#404040" d="M350.89,150.532c0-1.249,0-2.021,0-2.792    c0-19.835,0-39.67,0-59.505c0-3.271-0.001-3.291-3.302-3.264c-3.363,0.027-2.924-0.452-2.925,2.907    c-0.012,31.592-0.009,63.185-0.001,94.777c0.001,1.268,0.094,2.535,0.144,3.802c1.328,0.1,2.654,0.256,3.983,0.287    c2.231,0.053,2.104,0.123,2.103-2.047c-0.005-9.678-0.002-19.355-0.002-29.033c0-0.767,0-1.533,0-2.354    c0.341,0.102,0.533,0.1,0.627,0.195c5.072,5.203,10.138,10.412,15.201,15.625c5.453,5.614,10.896,11.238,16.368,16.834    c0.359,0.368,0.922,0.742,1.4,0.755c2.648,0.073,5.301,0.035,7.952,0.035c0.063-0.161,0.127-0.322,0.191-0.482    c-0.927-0.865-1.885-1.698-2.775-2.599c-10.224-10.346-20.436-20.701-30.651-31.054c-0.226-0.228-0.442-0.464-0.678-0.68    c-0.526-0.485-0.458-0.918,0.016-1.421c1.694-1.796,3.321-3.657,5.046-5.422c8.435-8.628,16.894-17.231,25.333-25.854    c0.35-0.357,0.586-0.824,1.104-1.569c-1.099,0-1.813,0.093-2.496-0.016c-3.375-0.54-5.814,0.694-8.118,3.258    c-4.799,5.343-9.94,10.379-14.921,15.561c-2.375,2.472-4.682,5.01-7.063,7.478C355.389,146.066,353.291,148.121,350.89,150.532z" id="path22"/>
      <path fill-rule="evenodd" clip-rule="evenodd" fill="#404040" d="M305.29,132.773c0-4.157,0.003-7.749-0.001-11.341    c-0.004-4.031,0.435-3.782-3.707-3.757c-2.778,0.017-2.503-0.34-2.504,2.612c-0.005,20.783-0.008,41.566,0.011,62.349    c0,1.325,0.188,2.651,0.289,3.977c1.267,0.048,2.533,0.124,3.802,0.139c2.398,0.028,2.107,0.057,2.108-2.282    c0.004-9.912,0.02-19.824-0.007-29.735c-0.011-4.135,0.152-8.231,0.944-12.32c0.996-5.143,2.736-9.954,6.019-14.036    c2.992-3.723,6.766-6.176,11.854-6.017c2.174,0.069,4.259,0.2,6.227,1.262c0.992,0.535,1.312,0.306,1.352-0.765    c0.05-1.357-0.027-2.719,0.027-4.076c0.033-0.824-0.42-0.963-1.07-1.256c-2.911-1.314-6.032-1.208-8.939-0.713    c-6.036,1.027-10.579,4.495-13.493,9.938C307.242,128.542,306.426,130.409,305.29,132.773z" id="path24"/>
      <path fill-rule="evenodd" clip-rule="evenodd" fill="#84A266" d="M172.386,271.67c0,0,23.077-3.178,34.653-4.434    c2.841-0.308,5.688-0.552,8.521-0.929c2.994-0.398,5.971-0.912,8.967-1.289c2.933-0.369,5.876-0.636,8.81-1.001    c1.377-0.171,2.742-0.423,4.113-0.631c1.551-0.235,3.036-0.229,4.599-0.237c-5.025,3.414-10.271,6.573-14.425,11.067    c-3.787,4.097-6.378,8.725-7.064,14.321c-0.619,5.05-0.022,10.332,2.266,14.915c2.292,4.592,6.134,8.211,10.528,10.785    c9.974,5.84,22.229,5.961,33.338,4.345c5.773-0.84,11.489-2.836,16.428-5.963c2.335-1.479,4.494-3.231,6.429-5.206    c0.539-0.551,1.215-1.578,2.06-0.998c1.246,0.855,2.335,2.043,3.457,3.054c2.68,2.414,5.382,4.802,8.155,7.108    c0.57,0.474,1.239,1.163,2.034,1.188c0.782,0.024,1.565,0.036,2.349,0.041c1.705,0.01,3.409-0.008,5.114-0.008    c-4.483-4.096-9.199-7.94-13.8-11.903c-1.164-1.003-2.319-2.016-3.483-3.018c-0.42-0.362-1.366-0.906-1.138-1.586    c0.324-0.965,0.996-1.878,1.443-2.792c0.683-1.396,1.3-2.824,1.85-4.278c2.038-5.387,3.162-11.136,3.449-16.885    c0.055-1.084,0.146-2.43-1.173-2.686c-0.737-0.143-1.516-0.098-2.262-0.086c-1.108,0.018-1.822,0.094-1.956,1.338    c-0.813,7.593-1.48,15.471-5.475,22.183c-3.108-2.772-6.317-5.417-9.262-8.369c-3.162-3.171-6.309-6.357-9.438-9.56    c-3.038-3.109-6.06-6.233-9.063-9.375c-2.893-3.025-5.41-6.298-8.06-9.53c12.958-1.714,71.261-9.125,77.732-10.016    c3.216-0.442,29.271-3.667,29.271-3.667s6.425-0.808,9.635-1.224c6.455-0.834,12.918-1.62,19.375-2.446    c6.503-0.832,13-1.719,19.506-2.523c2.407-0.297,4.814-0.59,7.222-0.89c0.179,6.652,0.063,13.319,0.063,19.974    c0,6.658,0,13.316,0,19.974c0.001,13.316,0.001,26.632,0.001,39.949c0.001,26.633,0.001,53.265,0.001,79.897    c-0.001,13.317-0.204,45.687-0.204,45.687s-20.805-0.014-27.47-0.014c-26.657,0-53.315,0-79.973,0c-26.658,0-53.315,0-79.974,0    c-26.657,0-53.315,0-79.973,0c-13.329,0-26.658,0-39.986,0c-3.333,0-9.997,0-9.997,0l-4.505-0.007l0.001-3.698    c0,0,0-68.425,0-95.049c0-10.916,0-21.832,0-32.749c0-5.458,0.044-33.145,0.044-33.145L172.386,271.67z" id="path26"/>
      <path fill-rule="evenodd" clip-rule="evenodd" fill="#84A266" d="M328.813,351.631c-0.14,0.018-0.279,0.036-0.419,0.054    c-0.483-0.71-0.988-1.408-1.447-2.134c-2.23-3.525-5.238-6.188-9.04-7.865c-5.938-2.619-12.114-2.913-18.397-1.541    c-5.922,1.293-10.884,4.192-15.003,8.697c-3.846,4.207-6.32,9.09-7.973,14.464c-1.518,4.937-1.481,10.017-1.524,15.114    c-0.043,5.226,0.823,10.243,2.656,15.119c2.133,5.671,5.658,10.256,10.674,13.657c5.243,3.554,11.021,4.819,17.338,4.294    c3.119-0.259,6.098-0.793,9.015-1.889c5.567-2.093,9.868-5.684,12.974-10.737c0.266-0.432,0.597-0.824,1.147-1.578    c0,3.092-0.019,5.727,0.008,8.362c0.014,1.345,0.107,2.688,0.165,4.033c1.411,0.092,2.82,0.241,4.232,0.262    c1.795,0.024,1.798-0.021,1.826-1.839c0.008-0.479,0.001-0.96,0.001-1.439c0-31.272,0.004-62.544-0.011-93.816    c-0.001-1.493-0.163-2.987-0.25-4.48c-1.58-0.069-3.161-0.138-4.742-0.207c-0.08-0.003-0.16,0.007-0.24,0.003    c-0.708-0.032-1.006,0.323-0.987,1.011c0.016,0.559-0.001,1.12-0.001,1.68c-0.001,12.797-0.001,25.593-0.001,38.39    C328.813,350.041,328.813,350.836,328.813,351.631z" id="path28"/>
      <path fill-rule="evenodd" clip-rule="evenodd" fill="#84A266" d="M376.859,402.021c-1.794-4.967-3.427-9.573-5.119-14.157    c-3.263-8.833-6.561-17.653-9.84-26.48c-2.066-5.563-4.114-11.133-6.2-16.688c-0.466-1.24-0.743-2.903-1.674-3.52    c-0.962-0.638-2.611-0.278-3.961-0.287c-2.788-0.02-2.956-0.349-1.801,2.692c3.57,9.397,7.204,18.77,10.81,28.153    c2.81,7.314,5.62,14.628,8.417,21.948c1.752,4.583,3.436,9.192,5.241,13.753c0.525,1.327,0.586,2.402-0.033,3.782    c-1.881,4.188-3.47,8.505-5.293,12.719c-1.422,3.286-2.976,6.522-5.658,9.037c-1.54,1.444-3.302,2.666-5.387,2.831    c-2.192,0.174-4.431-0.124-6.64-0.32c-0.789-0.07-1.241-0.031-1.229,0.886c0.016,1.279,0.067,2.563-0.02,3.838    c-0.069,1.021,0.377,1.48,1.309,1.557c1.735,0.144,3.473,0.308,5.213,0.365c4.227,0.141,7.727-1.541,10.681-4.455    c3.584-3.533,5.826-7.931,7.754-12.482c2.284-5.395,4.393-10.863,6.605-16.289c3.381-8.288,6.814-16.554,10.173-24.851    c4.218-10.422,8.379-20.868,12.571-31.3c1.359-3.38,2.737-6.753,4.116-10.125c0.416-1.016,0.268-1.948-1.208-1.771    c-1.104,0.131-2.238,0.063-3.356,0.014c-1.087-0.047-1.622,0.282-2.067,1.433c-3.396,8.788-6.938,17.52-10.396,26.284    c-2.847,7.216-5.644,14.451-8.456,21.681C379.928,394.076,378.458,397.891,376.859,402.021z" id="path30"/>
      <path fill-rule="evenodd" clip-rule="evenodd" fill="#84A266" d="M251.199,397.693c0.111,0.036,0.223,0.072,0.333,0.108    c0,2.876,0,5.753,0,8.629c0.001,3.53,0.001,3.543,3.508,3.523c3.093-0.017,2.718,0.361,2.72-2.632    c0.01-21.199,0.005-42.397,0.005-63.596c0-0.4,0.02-0.801-0.004-1.2c-0.083-1.412-0.247-1.579-1.739-1.638    c-0.879-0.035-1.76-0.017-2.64-0.004c-1.812,0.026-1.813,0.031-1.848,1.843c-0.008,0.4-0.002,0.8-0.002,1.2    c0,10.479,0.031,20.959-0.019,31.438c-0.015,2.937-0.278,5.873-0.405,8.81c-0.189,4.381-1.56,8.399-3.8,12.124    c-1.877,3.121-4.302,5.762-7.624,7.354c-4.225,2.025-8.616,2.749-13.368,2.067c-6.573-0.943-10.838-4.417-13.183-10.505    c-1.676-4.353-2.22-8.944-2.291-13.51c-0.186-12.077-0.063-24.158-0.079-36.237c-0.002-1.429-0.101-2.856-0.154-4.285    c-1.488-0.101-2.974-0.26-4.463-0.285c-1.575-0.026-1.645,0.031-1.619,1.556c0.255,15.175-0.584,30.361,0.46,45.527    c0.325,4.726,1.519,9.212,3.87,13.351c2.19,3.856,5.311,6.769,9.392,8.466c4.944,2.057,10.193,2.318,15.392,1.498    c6.149-0.971,11.087-4.171,14.689-9.309C249.317,400.577,250.244,399.125,251.199,397.693z" id="path32"/>
      <path fill-rule="evenodd" clip-rule="evenodd" fill="#84A266" d="M107.652,399.69c0,2.227,0.052,4.06-0.022,5.889    c-0.038,0.923,0.279,1.521,1.07,1.915c1.636,0.814,3.212,1.802,4.923,2.404c6.398,2.254,12.917,2.327,19.455,0.653    c3.861-0.989,7.233-2.919,9.938-5.857c3.229-3.508,4.59-7.676,4.463-12.475c-0.141-5.335-2.223-9.488-6.525-12.632    c-3.43-2.506-7.144-4.451-10.985-6.234c-3.318-1.539-6.543-3.295-9.726-5.104c-2.036-1.157-3.734-2.776-4.591-5.041    c-2.91-7.689,0.34-15.555,9.314-17.573c4.887-1.099,9.652-0.476,14.26,1.367c2.059,0.823,4.051,1.814,6.253,2.811    c0-1.815-0.068-3.555,0.024-5.287c0.06-1.116-0.326-1.736-1.339-2.196c-6.521-2.965-13.261-3.679-20.266-2.179    c-4.42,0.946-8.31,2.972-11.359,6.218c-7.166,7.627-5.806,19.955,2.836,25.981c2.854,1.99,5.99,3.592,9.065,5.245    c2.665,1.432,5.475,2.595,8.126,4.049c1.735,0.952,3.425,2.068,4.918,3.362c3.771,3.268,4.036,7.533,2.95,12.017    c-0.771,3.184-2.618,5.674-5.652,7c-4.642,2.028-9.519,2.342-14.446,1.322c-4.085-0.845-7.923-2.348-11.276-4.921    C108.766,400.198,108.392,400.071,107.652,399.69z" id="path34"/>
      <path fill-rule="evenodd" clip-rule="evenodd" fill="#84A266" d="M192.46,403.069c-0.692,0.344-0.964,0.479-1.235,0.614    c-2.592,1.292-5.293,2.214-8.231,1.934c-3.106-0.297-5.953-1.106-7.33-4.382c-0.903-2.148-1.373-4.379-1.396-6.694    c-0.04-4.079-0.032-8.159-0.033-12.238c-0.003-11.279-0.006-22.558,0.004-33.837c0.001-1.811,0.032-1.834,1.842-1.84    c4.239-0.015,8.479-0.004,12.719-0.004c3.741,0,3.742,0,3.661-3.637c-0.044-1.997-0.125-2.093-2.245-2.101    c-4.08-0.015-8.159-0.004-12.239-0.004c-3.743,0-3.743,0-3.743-3.791c0-4.88,0.014-9.759-0.01-14.639    c-0.007-1.32-0.137-1.388-1.365-1.014c-0.984,0.299-1.954,0.642-2.926,0.976c-2.289,0.788-2.313,0.813-2.317,3.193    c-0.007,4.56,0.011,9.12-0.01,13.679c-0.007,1.542-0.046,1.567-1.616,1.587c-2.08,0.026-4.16,0.007-6.239,0.007    c-4.55,0-4.521-0.002-4.229,4.524c0.061,0.936,0.376,1.242,1.283,1.229c2.719-0.037,5.439-0.025,8.159-0.009    c3,0.018,2.604-0.33,2.652,2.724c0.245,15.416-0.482,30.837,0.38,46.25c0.153,2.735,0.631,5.373,1.669,7.851    c1.378,3.292,3.861,5.758,7.216,6.894c4.903,1.658,9.837,1.301,14.548-0.941c0.459-0.219,0.942-0.888,0.985-1.385    C192.543,406.518,192.46,405.001,192.46,403.069z" id="path36"/>
      <path fill-rule="evenodd" clip-rule="evenodd" fill="#FBFBFA" d="M254.352,261.252c2.222,2.71,4.285,5.57,6.695,8.101    c6.723,7.056,13.537,14.026,20.423,20.923c2.7,2.704,5.688,5.121,8.703,7.81c1.458-2.45,2.438-4.964,3.188-7.609    c1.354-4.771,1.764-9.682,2.287-14.574c0.111-1.035,0.418-1.311,1.428-1.329c4.051-0.072,4.188-0.097,3.881,4.009    c-0.555,7.44-2.379,14.565-5.872,21.208c-1.104,2.098-1.304,1.644,0.596,3.299c4.989,4.35,10.05,8.618,15.079,12.923    c0.535,0.458,1.043,0.949,1.958,1.785c-2.799,0-5.132,0.041-7.463-0.032c-0.49-0.016-1.035-0.363-1.44-0.697    c-1.783-1.471-3.541-2.974-5.278-4.501c-2.039-1.792-4.042-3.623-6.067-5.431c-1.362-1.215-1.43-1.271-2.686,0.035    c-3.192,3.318-6.867,5.905-11.056,7.827c-4.302,1.974-8.782,3.245-13.472,3.768c-2.922,0.326-5.858,0.81-8.782,0.772    c-9.614-0.122-18.958-1.633-26.757-7.785c-5.825-4.595-9.086-10.753-9.351-18.323c-0.21-5.999,1.095-11.572,4.837-16.361    c2.661-3.407,5.757-6.409,9.366-8.841c2.499-1.685,4.988-3.386,7.481-5.08c1.534-0.836,3.068-1.672,4.769-2.599    c-1.196-1.75-2.313-3.366-3.411-4.993c-3.182-4.714-5.794-9.682-7.27-15.232c-3.428-12.9,3.402-25.329,16.199-29.134    c8.668-2.577,17.165-1.884,25.48,1.618c1.058,0.445,1.496,0.981,1.39,2.131c-0.109,1.185-0.038,2.386-0.055,3.581    c-0.001,0.052-0.09,0.103-0.137,0.154c-2.212-1.044-4.346-2.32-6.648-3.09c-7.571-2.531-15.03-2.308-22.257,1.381    c-7.01,3.578-10.421,12.439-9.385,19.466c0.628,4.254,1.976,8.24,4.35,11.784C248.04,252.646,251.248,256.915,254.352,261.252z" id="path38"/>
      <path fill-rule="evenodd" clip-rule="evenodd" fill="#FBFBFA" d="M256.948,315.25c3.543-0.433,7.124-0.672,10.623-1.338    c7.123-1.356,13.503-4.213,18.266-9.97c1.173-1.417,1.233-1.428-0.106-2.698c-2.259-2.142-4.594-4.204-6.843-6.355    c-9.934-9.501-19.364-19.482-28.34-29.892c-0.761-0.883-1.216-1.201-2.309-0.448c-2.621,1.805-5.388,3.397-8.032,5.171    c-3.859,2.588-7.391,5.554-10.17,9.332c-4.361,5.927-5.563,12.466-3.267,19.426c2.032,6.159,6.42,10.369,12.269,13.008    C244.706,314.041,250.706,315.072,256.948,315.25z" id="path40"/>
      <path fill-rule="evenodd" clip-rule="evenodd" fill="#FAFAFA" d="M143.756,178.166c4.038-12.738,8.152-25.71,12.263-38.684    c2.118-6.685,4.269-13.36,6.315-20.068c0.411-1.348,1.08-1.734,2.404-1.638c2.244,0.165,2.245-0.531,3.043,2.305    c4.901,17.417,9.873,34.813,14.783,52.226c0.556,1.972,0.875,4.011,1.304,6.024c5.508-19.604,11.518-39.003,17.274-58.478    c0.603-2.04,0.593-2.043,2.723-2.053c0.24-0.001,0.48,0,0.72,0c3.578,0,3.58,0,2.481,3.542    c-6.545,21.084-13.091,42.169-19.637,63.254c-0.67,2.16-0.671,2.159-2.89,2.165c-3.58,0.01-3.58,0.01-4.629-3.62    c-4.628-16.001-9.264-32-13.872-48.006c-0.475-1.65-0.789-3.346-1.483-5.093c-0.178,0.622-0.339,1.248-0.535,1.864    c-1.932,6.075-3.853,12.154-5.811,18.221c-3.745,11.603-7.513,23.197-11.268,34.797c-0.587,1.815-0.579,1.856-2.393,1.825    c-1.335-0.023-2.974,0.276-3.913-0.379c-0.834-0.582-0.922-2.269-1.289-3.483c-6.281-20.83-12.553-41.662-18.83-62.493    c-0.115-0.382-0.274-0.752-0.365-1.139c-0.292-1.233-0.179-1.406,1.069-1.445c1.199-0.038,2.4-0.018,3.6-0.006    c1.834,0.018,1.847,0.02,2.326,1.655c1.745,5.967,3.48,11.936,5.219,17.904c3.232,11.095,6.493,22.182,9.675,33.292    C142.761,173.171,143.215,175.766,143.756,178.166z" id="path42"/>
      <path fill-rule="evenodd" clip-rule="evenodd" fill="#83A065" d="M282.14,152.298c-0.076,5.007-0.818,9.865-2.333,14.56    c-1.346,4.173-3.299,8.098-6.425,11.287c-2.115,2.158-4.141,4.404-6.827,5.946c-2.979,1.71-6.079,3.048-9.466,3.604    c-2.493,0.409-5.029,0.972-7.523,0.876c-7.202-0.278-14.125-1.608-20.021-6.274c-6.82-5.397-10.525-12.55-12.041-20.94    c-0.505-2.792-0.973-5.662-0.882-8.478c0.216-6.739,0.986-13.437,4.125-19.57c4.333-8.465,11.171-13.834,20.403-16.119    c3.966-0.981,8.031-1.321,12.068-0.921c7.524,0.745,14.364,3.214,19.616,8.985c4.152,4.564,6.825,9.933,7.951,15.974    C281.466,144.875,281.703,148.605,282.14,152.298z" id="path44"/>
      <path fill-rule="evenodd" clip-rule="evenodd" fill="#83A065" d="M249.763,121.776c-1.725,0.213-3.454,0.392-5.174,0.645    c-7.087,1.043-12.449,4.717-16.383,10.654c-3.206,4.837-4.423,10.314-4.885,15.914c-0.498,6.034,0.051,12.042,2.3,17.775    c1.901,4.846,4.9,8.834,9.17,11.847c4.671,3.295,10.026,4.108,15.55,4.253c0.932,0.024,1.866-0.334,2.807-0.391    c7.138-0.432,12.675-3.696,16.797-9.458c4.033-5.637,5.086-12.186,5.537-18.86c0.148-2.193-0.299-4.421-0.366-6.637    c-0.105-3.433-0.794-6.746-1.97-9.95c-1.857-5.062-4.833-9.33-9.484-12.181C259.431,122.795,254.717,121.858,249.763,121.776z" id="path46"/>
      <path fill-rule="evenodd" clip-rule="evenodd" fill="#83A065" d="M350.89,150.532c2.401-2.411,4.499-4.465,6.537-6.578    c2.381-2.467,4.688-5.005,7.063-7.478c4.98-5.181,10.122-10.217,14.921-15.561c2.304-2.564,4.743-3.798,8.118-3.258    c0.683,0.109,1.397,0.016,2.496,0.016c-0.519,0.745-0.755,1.212-1.104,1.569c-8.439,8.623-16.898,17.226-25.333,25.854    c-1.725,1.765-3.352,3.626-5.046,5.422c-0.474,0.503-0.542,0.937-0.016,1.421c0.235,0.216,0.452,0.452,0.678,0.68    c10.216,10.353,20.428,20.708,30.651,31.054c0.891,0.901,1.849,1.734,2.775,2.599c-0.064,0.161-0.128,0.321-0.191,0.482    c-2.651,0-5.304,0.038-7.952-0.035c-0.479-0.013-1.041-0.387-1.4-0.755c-5.473-5.596-10.915-11.221-16.368-16.834    c-5.063-5.213-10.129-10.422-15.201-15.625c-0.094-0.095-0.286-0.094-0.627-0.195c0,0.82,0,1.587,0,2.354    c0,9.677-0.003,19.355,0.002,29.033c0.001,2.17,0.129,2.1-2.103,2.047c-1.329-0.031-2.655-0.187-3.983-0.287    c-0.05-1.267-0.143-2.535-0.144-3.802c-0.008-31.592-0.011-63.185,0.001-94.777c0.001-3.359-0.438-2.88,2.925-2.907    c3.301-0.026,3.302-0.006,3.302,3.264c0,19.835,0,39.67,0,59.505C350.89,148.511,350.89,149.283,350.89,150.532z" id="path48"/>
      <path fill-rule="evenodd" clip-rule="evenodd" fill="#83A065" d="M305.29,132.773c1.136-2.364,1.952-4.232,2.91-6.023    c2.914-5.443,7.457-8.911,13.493-9.938c2.907-0.494,6.028-0.601,8.939,0.713c0.65,0.293,1.104,0.433,1.07,1.256    c-0.055,1.356,0.022,2.718-0.027,4.076c-0.04,1.071-0.359,1.3-1.352,0.765c-1.968-1.062-4.053-1.193-6.227-1.262    c-5.088-0.16-8.861,2.294-11.854,6.017c-3.282,4.082-5.022,8.893-6.019,14.036c-0.792,4.089-0.955,8.185-0.944,12.32    c0.026,9.912,0.011,19.823,0.007,29.735c-0.001,2.338,0.29,2.31-2.108,2.282c-1.269-0.015-2.535-0.091-3.802-0.139    c-0.102-1.326-0.289-2.651-0.289-3.977c-0.019-20.783-0.016-41.566-0.011-62.349c0.001-2.952-0.274-2.595,2.504-2.612    c4.142-0.024,3.703-0.274,3.707,3.757C305.293,125.024,305.29,128.616,305.29,132.773z" id="path50"/>
      <path fill-rule="evenodd" clip-rule="evenodd" fill="#3C3A39" d="M328.813,351.631c0-0.795,0-1.59,0-2.386    c0-12.797,0-25.593,0.001-38.39c0-0.56,0.017-1.121,0.001-1.68c-0.019-0.688,0.279-1.043,0.987-1.011    c0.08,0.004,0.16-0.006,0.24-0.003c1.581,0.069,3.162,0.138,4.742,0.207c0.087,1.493,0.249,2.987,0.25,4.48    c0.015,31.272,0.011,62.544,0.011,93.816c0,0.479,0.007,0.96-0.001,1.439c-0.028,1.817-0.031,1.863-1.826,1.839    c-1.412-0.021-2.821-0.17-4.232-0.262c-0.058-1.345-0.151-2.688-0.165-4.033c-0.026-2.635-0.008-5.27-0.008-8.362    c-0.551,0.753-0.882,1.146-1.147,1.578c-3.105,5.054-7.406,8.645-12.974,10.737c-2.917,1.096-5.896,1.63-9.015,1.889    c-6.316,0.525-12.095-0.74-17.338-4.294c-5.016-3.4-8.541-7.985-10.674-13.657c-1.833-4.876-2.699-9.893-2.656-15.119    c0.043-5.097,0.007-10.177,1.524-15.114c1.652-5.374,4.127-10.257,7.973-14.464c4.119-4.505,9.081-7.404,15.003-8.697    c6.283-1.372,12.46-1.078,18.397,1.541c3.802,1.677,6.81,4.34,9.04,7.865c0.459,0.726,0.964,1.423,1.447,2.134    C328.533,351.667,328.673,351.649,328.813,351.631z" id="path52"/>
      <path fill-rule="evenodd" clip-rule="evenodd" fill="#3C3A39" d="M328.813,374.595c0-1.918-0.01-3.837,0.002-5.755    c0.028-4.948-1.116-9.581-3.713-13.817c-2.04-3.327-4.757-6.018-8.287-7.65c-4.787-2.214-9.818-2.773-15.076-1.809    c-7.936,1.456-13.246,6.256-16.78,13.127c-2.601,5.058-3.563,10.631-3.603,16.311c-0.018,2.453,0.211,4.914,0.428,7.362    c0.424,4.783,1.693,9.322,4.239,13.437c2.728,4.408,6.453,7.721,11.445,9.197c3.316,0.979,6.746,1.167,10.311,0.751    c6.827-0.797,12.231-3.776,16.235-9.257c3.335-4.565,4.585-9.856,4.786-15.422C328.878,378.914,328.813,376.753,328.813,374.595z" id="path54"/>
      <path fill-rule="evenodd" clip-rule="evenodd" fill="#3C3A39" d="M376.859,402.021c1.599-4.13,3.068-7.946,4.551-11.755    c2.813-7.229,5.609-14.464,8.456-21.681c3.458-8.764,7-17.496,10.396-26.284c0.445-1.151,0.98-1.48,2.067-1.433    c1.118,0.049,2.252,0.117,3.356-0.014c1.476-0.176,1.624,0.756,1.208,1.771c-1.379,3.373-2.757,6.745-4.116,10.125    c-4.192,10.433-8.354,20.878-12.571,31.3c-3.358,8.297-6.792,16.563-10.173,24.851c-2.213,5.426-4.321,10.895-6.605,16.289    c-1.928,4.552-4.17,8.949-7.754,12.482c-2.954,2.914-6.454,4.596-10.681,4.455c-1.74-0.058-3.478-0.222-5.213-0.365    c-0.932-0.076-1.378-0.535-1.309-1.557c0.087-1.274,0.035-2.559,0.02-3.838c-0.012-0.917,0.44-0.956,1.229-0.886    c2.209,0.196,4.447,0.494,6.64,0.32c2.085-0.165,3.847-1.387,5.387-2.831c2.683-2.515,4.236-5.751,5.658-9.037    c1.823-4.214,3.412-8.531,5.293-12.719c0.619-1.38,0.559-2.455,0.033-3.782c-1.806-4.562-3.489-9.17-5.241-13.753    c-2.797-7.32-5.607-14.633-8.417-21.948c-3.605-9.384-7.239-18.756-10.81-28.153c-1.155-3.041-0.987-2.712,1.801-2.692    c1.35,0.009,2.999-0.351,3.961,0.287c0.931,0.617,1.208,2.28,1.674,3.52c2.086,5.556,4.134,11.125,6.2,16.688    c3.279,8.827,6.577,17.647,9.84,26.48C373.433,392.448,375.065,397.054,376.859,402.021z" id="path56"/>
      <path fill-rule="evenodd" clip-rule="evenodd" fill="#3C3A39" d="M251.199,397.693c-0.955,1.432-1.882,2.884-2.87,4.293    c-3.603,5.138-8.54,8.338-14.689,9.309c-5.198,0.82-10.448,0.559-15.392-1.498c-4.082-1.697-7.202-4.61-9.392-8.466    c-2.351-4.139-3.544-8.625-3.87-13.351c-1.044-15.166-0.205-30.352-0.46-45.527c-0.026-1.525,0.044-1.583,1.619-1.556    c1.489,0.025,2.976,0.184,4.463,0.285c0.054,1.428,0.152,2.856,0.154,4.285c0.016,12.079-0.107,24.16,0.079,36.237    c0.071,4.566,0.615,9.157,2.291,13.51c2.345,6.088,6.61,9.562,13.183,10.505c4.752,0.682,9.144-0.042,13.368-2.067    c3.322-1.593,5.747-4.234,7.624-7.354c2.24-3.725,3.61-7.742,3.8-12.124c0.127-2.938,0.391-5.873,0.405-8.81    c0.05-10.479,0.019-20.959,0.019-31.438c0-0.4-0.006-0.8,0.002-1.2c0.035-1.812,0.036-1.817,1.848-1.843    c0.88-0.013,1.761-0.031,2.64,0.004c1.492,0.059,1.656,0.226,1.739,1.638c0.023,0.399,0.004,0.8,0.004,1.2    c0,21.199,0.005,42.397-0.005,63.596c-0.002,2.993,0.373,2.615-2.72,2.632c-3.507,0.02-3.507,0.007-3.508-3.523    c0-2.876,0-5.752,0-8.629C251.422,397.765,251.311,397.729,251.199,397.693z" id="path58"/>
      <path fill-rule="evenodd" clip-rule="evenodd" fill="#FBFCFB" d="M107.652,399.69c0.739,0.381,1.113,0.508,1.41,0.736    c3.354,2.574,7.191,4.077,11.276,4.921c4.927,1.02,9.805,0.706,14.446-1.322c3.035-1.326,4.882-3.817,5.652-7    c1.086-4.484,0.822-8.749-2.95-12.017c-1.493-1.293-3.184-2.41-4.918-3.362c-2.651-1.455-5.461-2.617-8.126-4.049    c-3.075-1.653-6.211-3.255-9.065-5.245c-8.643-6.026-10.002-18.354-2.836-25.981c3.049-3.246,6.939-5.271,11.359-6.218    c7.005-1.5,13.744-0.786,20.266,2.179c1.013,0.46,1.399,1.081,1.339,2.196c-0.093,1.731-0.024,3.472-0.024,5.287    c-2.202-0.997-4.194-1.988-6.253-2.811c-4.608-1.843-9.374-2.466-14.26-1.367c-8.974,2.018-12.224,9.883-9.314,17.573    c0.857,2.264,2.556,3.884,4.591,5.041c3.182,1.809,6.408,3.564,9.726,5.104c3.841,1.783,7.555,3.728,10.985,6.234    c4.302,3.144,6.384,7.296,6.525,12.632c0.126,4.799-1.234,8.967-4.463,12.475c-2.705,2.938-6.077,4.868-9.938,5.857    c-6.538,1.674-13.057,1.601-19.455-0.653c-1.711-0.603-3.287-1.59-4.923-2.404c-0.791-0.394-1.108-0.992-1.07-1.915    C107.704,403.75,107.652,401.917,107.652,399.69z" id="path60"/>
      <path fill-rule="evenodd" clip-rule="evenodd" fill="#3D3B39" d="M192.46,403.069c0,1.932,0.083,3.448-0.046,4.946    c-0.043,0.497-0.526,1.166-0.985,1.385c-4.711,2.242-9.646,2.6-14.548,0.941c-3.355-1.136-5.838-3.602-7.216-6.894    c-1.038-2.478-1.516-5.115-1.669-7.851c-0.862-15.413-0.135-30.835-0.38-46.25c-0.048-3.053,0.348-2.706-2.652-2.724    c-2.72-0.016-5.44-0.027-8.159,0.009c-0.907,0.013-1.223-0.293-1.283-1.229c-0.292-4.526-0.321-4.524,4.229-4.524    c2.08,0,4.16,0.019,6.239-0.007c1.57-0.02,1.608-0.046,1.616-1.587c0.021-4.56,0.002-9.12,0.01-13.679    c0.004-2.38,0.029-2.406,2.317-3.193c0.972-0.334,1.942-0.677,2.926-0.976c1.229-0.375,1.358-0.306,1.365,1.014    c0.024,4.879,0.01,9.759,0.01,14.639c0,3.791,0,3.791,3.743,3.791c4.08,0,8.159-0.011,12.239,0.004    c2.119,0.008,2.201,0.104,2.245,2.101c0.081,3.637,0.081,3.637-3.661,3.637c-4.24,0-8.479-0.01-12.719,0.004    c-1.811,0.006-1.841,0.03-1.842,1.84c-0.01,11.279-0.007,22.558-0.004,33.837c0.001,4.08-0.007,8.159,0.033,12.238    c0.022,2.315,0.492,4.545,1.396,6.694c1.377,3.276,4.223,4.085,7.33,4.382c2.938,0.28,5.639-0.642,8.231-1.934    C191.497,403.548,191.769,403.413,192.46,403.069z" id="path62"/>
      <path fill-rule="evenodd" clip-rule="evenodd" fill="#85A366" d="M256.948,315.25c-6.242-0.178-12.242-1.209-17.909-3.766    c-5.849-2.639-10.236-6.849-12.269-13.008c-2.297-6.96-1.094-13.499,3.267-19.426c2.779-3.778,6.311-6.744,10.17-9.332    c2.645-1.773,5.411-3.366,8.032-5.171c1.093-0.752,1.548-0.435,2.309,0.448c8.976,10.41,18.406,20.391,28.34,29.892    c2.249,2.152,4.584,4.213,6.843,6.355c1.34,1.271,1.279,1.281,0.106,2.698c-4.763,5.757-11.143,8.614-18.266,9.97    C264.072,314.578,260.491,314.817,256.948,315.25z" id="path64"/>
      <path fill-rule="evenodd" clip-rule="evenodd" fill="#404040" d="M249.763,121.776c4.954,0.082,9.668,1.019,13.898,3.612    c4.651,2.852,7.627,7.119,9.484,12.181c1.176,3.204,1.864,6.517,1.97,9.95c0.067,2.215,0.515,4.443,0.366,6.637    c-0.451,6.674-1.504,13.223-5.537,18.86c-4.122,5.761-9.659,9.026-16.797,9.458c-0.94,0.057-1.875,0.416-2.807,0.391    c-5.523-0.145-10.879-0.958-15.55-4.253c-4.27-3.012-7.27-7.001-9.17-11.847c-2.249-5.733-2.798-11.741-2.3-17.775    c0.462-5.6,1.68-11.077,4.885-15.914c3.934-5.938,9.296-9.611,16.383-10.654C246.309,122.168,248.038,121.989,249.763,121.776z" id="path66"/>
      <path fill-rule="evenodd" clip-rule="evenodd" fill="#84A265" d="M328.813,374.595c0,2.158,0.064,4.319-0.013,6.474    c-0.201,5.566-1.451,10.857-4.786,15.422c-4.004,5.481-9.408,8.46-16.235,9.257c-3.564,0.416-6.994,0.229-10.311-0.751    c-4.992-1.476-8.718-4.789-11.445-9.197c-2.546-4.115-3.815-8.654-4.239-13.437c-0.217-2.449-0.445-4.909-0.428-7.362    c0.04-5.68,1.002-11.253,3.603-16.311c3.534-6.871,8.845-11.671,16.78-13.127c5.258-0.965,10.289-0.405,15.076,1.809    c3.53,1.633,6.247,4.324,8.287,7.65c2.597,4.236,3.741,8.87,3.713,13.817C328.804,370.758,328.813,372.677,328.813,374.595z" id="path68"/>
    </g>
  </g>
  <path d="M 675.441 225.264 L 675.441 244.404 L 599.841 244.404 L 599.841 107.864 L 622.501 107.864 L 622.501 225.264 L 675.441 225.264 ZM 766.229 193.174 L 766.229 201.654 L 699.769 201.654 C 700.023 210.667 702.799 217.617 708.099 222.504 C 713.399 227.391 720.683 229.834 729.949 229.834 C 740.363 229.834 749.916 226.724 758.609 220.504 L 758.609 238.314 C 749.723 243.901 737.979 246.694 723.379 246.694 C 709.033 246.694 697.783 242.264 689.629 233.404 C 681.469 224.551 677.389 212.094 677.389 196.034 C 677.389 180.861 681.883 168.497 690.869 158.944 C 699.849 149.391 711.003 144.614 724.329 144.614 C 737.663 144.614 747.979 148.901 755.279 157.474 C 762.579 166.041 766.229 177.941 766.229 193.174 Z M 699.769 186.034 L 744.899 186.034 C 744.839 178.101 742.966 171.927 739.279 167.514 C 735.599 163.107 730.523 160.904 724.049 160.904 C 717.703 160.904 712.323 163.221 707.909 167.854 C 703.496 172.487 700.783 178.547 699.769 186.034 ZM 853.112 180.994 L 853.112 244.404 L 831.682 244.404 L 831.682 229.174 L 831.302 229.174 C 824.575 240.854 814.705 246.694 801.692 246.694 C 792.105 246.694 784.598 244.091 779.172 238.884 C 773.745 233.677 771.032 226.791 771.032 218.224 C 771.032 199.811 781.632 189.081 802.832 186.034 L 831.782 181.944 C 831.782 168.044 825.178 161.094 811.972 161.094 C 800.358 161.094 789.885 165.091 780.552 173.084 L 780.552 153.764 C 790.838 147.664 802.708 144.614 816.162 144.614 C 840.795 144.614 853.112 156.741 853.112 180.994 Z M 831.782 204.984 L 831.782 196.514 L 811.312 199.364 C 804.965 200.191 800.188 201.731 796.982 203.984 C 793.775 206.237 792.172 210.191 792.172 215.844 C 792.172 219.964 793.648 223.344 796.602 225.984 C 799.548 228.617 803.498 229.934 808.452 229.934 C 815.178 229.934 820.748 227.567 825.162 222.834 C 829.575 218.107 831.782 212.157 831.782 204.984 ZM 927.615 147.004 L 927.615 167.944 C 924.948 165.851 921.105 164.804 916.085 164.804 C 909.551 164.804 904.095 167.757 899.715 173.664 C 895.335 179.564 893.145 187.591 893.145 197.744 L 893.145 244.404 L 871.055 244.404 L 871.055 146.904 L 893.145 146.904 L 893.145 166.994 L 893.525 166.994 C 895.685 160.141 899.001 154.794 903.475 150.954 C 907.948 147.114 912.945 145.194 918.465 145.194 C 922.465 145.194 925.515 145.797 927.615 147.004 ZM 1021.056 184.804 L 1021.056 244.404 L 998.966 244.404 L 998.966 189.464 C 998.966 171.244 992.523 162.134 979.636 162.134 C 972.91 162.134 967.356 164.657 962.976 169.704 C 958.596 174.751 956.406 181.114 956.406 188.794 L 956.406 244.404 L 934.226 244.404 L 934.226 146.904 L 956.406 146.904 L 956.406 163.094 L 956.786 163.094 C 964.086 150.774 974.623 144.614 988.396 144.614 C 999.003 144.614 1007.096 148.061 1012.676 154.954 C 1018.263 161.841 1021.056 171.791 1021.056 184.804 ZM 1050.146 126.434 C 1046.526 126.434 1043.429 125.261 1040.856 122.914 C 1038.289 120.561 1037.006 117.577 1037.006 113.964 C 1037.006 110.344 1038.289 107.327 1040.856 104.914 C 1043.429 102.501 1046.526 101.294 1050.146 101.294 C 1053.893 101.294 1057.066 102.501 1059.666 104.914 C 1062.266 107.327 1063.566 110.344 1063.566 113.964 C 1063.566 117.391 1062.266 120.324 1059.666 122.764 C 1057.066 125.211 1053.893 126.434 1050.146 126.434 Z M 1061.096 146.904 L 1061.096 244.404 L 1039.006 244.404 L 1039.006 146.904 L 1061.096 146.904 ZM 1167.775 184.804 L 1167.775 244.404 L 1145.685 244.404 L 1145.685 189.464 C 1145.685 171.244 1139.242 162.134 1126.355 162.134 C 1119.629 162.134 1114.075 164.657 1109.695 169.704 C 1105.315 174.751 1103.125 181.114 1103.125 188.794 L 1103.125 244.404 L 1080.945 244.404 L 1080.945 146.904 L 1103.125 146.904 L 1103.125 163.094 L 1103.505 163.094 C 1110.805 150.774 1121.342 144.614 1135.115 144.614 C 1145.722 144.614 1153.815 148.061 1159.395 154.954 C 1164.982 161.841 1167.775 171.791 1167.775 184.804 ZM 1274.465 146.904 L 1274.465 236.594 C 1274.465 272.394 1256.468 290.294 1220.475 290.294 C 1207.782 290.294 1196.705 288.167 1187.245 283.914 L 1187.245 263.734 C 1197.912 269.827 1208.035 272.874 1217.615 272.874 C 1240.788 272.874 1252.375 261.481 1252.375 238.694 L 1252.375 228.024 L 1251.995 228.024 C 1244.695 240.471 1233.712 246.694 1219.045 246.694 C 1207.178 246.694 1197.612 242.361 1190.345 233.694 C 1183.072 225.027 1179.435 213.394 1179.435 198.794 C 1179.435 182.227 1183.338 169.057 1191.145 159.284 C 1198.958 149.504 1209.688 144.614 1223.335 144.614 C 1236.222 144.614 1245.775 149.884 1251.995 160.424 L 1252.375 160.424 L 1252.375 146.904 L 1274.465 146.904 Z M 1252.565 199.744 L 1252.565 187.084 C 1252.565 180.231 1250.295 174.374 1245.755 169.514 C 1241.215 164.661 1235.548 162.234 1228.755 162.234 C 1220.382 162.234 1213.828 165.327 1209.095 171.514 C 1204.368 177.707 1202.005 186.357 1202.005 197.464 C 1202.005 207.051 1204.275 214.714 1208.815 220.454 C 1213.348 226.201 1219.362 229.074 1226.855 229.074 C 1234.475 229.074 1240.665 226.327 1245.425 220.834 C 1250.185 215.347 1252.565 208.317 1252.565 199.744 ZM 1358.108 107.864 L 1408.858 244.404 L 1384.008 244.404 L 1371.718 209.654 L 1318.018 209.654 L 1306.208 244.404 L 1281.458 244.404 L 1332.588 107.864 L 1358.108 107.864 Z M 1323.918 191.174 L 1365.718 191.174 L 1346.778 136.714 C 1346.205 134.941 1345.602 132.084 1344.968 128.144 L 1344.588 128.144 C 1344.015 131.764 1343.378 134.621 1342.678 136.714 L 1323.918 191.174 ZM 1438.607 230.024 L 1438.227 230.024 L 1438.227 289.254 L 1416.137 289.254 L 1416.137 146.904 L 1438.227 146.904 L 1438.227 164.044 L 1438.607 164.044 C 1446.16 151.091 1457.203 144.614 1471.737 144.614 C 1484.117 144.614 1493.767 148.964 1500.687 157.664 C 1507.607 166.357 1511.067 178.037 1511.067 192.704 C 1511.067 208.951 1507.163 221.964 1499.357 231.744 C 1491.543 241.517 1480.877 246.404 1467.357 246.404 C 1454.917 246.404 1445.333 240.944 1438.607 230.024 Z M 1438.037 191.564 L 1438.037 203.654 C 1438.037 210.761 1440.303 216.791 1444.837 221.744 C 1449.377 226.697 1455.14 229.174 1462.127 229.174 C 1470.313 229.174 1476.74 225.984 1481.407 219.604 C 1486.073 213.224 1488.407 204.321 1488.407 192.894 C 1488.407 183.307 1486.23 175.801 1481.877 170.374 C 1477.53 164.947 1471.643 162.234 1464.217 162.234 C 1456.343 162.234 1450.013 165.027 1445.227 170.614 C 1440.433 176.201 1438.037 183.184 1438.037 191.564 ZM 1547.1 230.024 L 1546.72 230.024 L 1546.72 289.254 L 1524.63 289.254 L 1524.63 146.904 L 1546.72 146.904 L 1546.72 164.044 L 1547.1 164.044 C 1554.653 151.091 1565.696 144.614 1580.23 144.614 C 1592.61 144.614 1602.26 148.964 1609.18 157.664 C 1616.1 166.357 1619.56 178.037 1619.56 192.704 C 1619.56 208.951 1615.656 221.964 1607.85 231.744 C 1600.036 241.517 1589.37 246.404 1575.85 246.404 C 1563.41 246.404 1553.826 240.944 1547.1 230.024 Z M 1546.53 191.564 L 1546.53 203.654 C 1546.53 210.761 1548.796 216.791 1553.33 221.744 C 1557.87 226.697 1563.633 229.174 1570.62 229.174 C 1578.806 229.174 1585.233 225.984 1589.9 219.604 C 1594.566 213.224 1596.9 204.321 1596.9 192.894 C 1596.9 183.307 1594.723 175.801 1590.37 170.374 C 1586.023 164.947 1580.136 162.234 1572.71 162.234 C 1564.836 162.234 1558.506 165.027 1553.72 170.614 C 1548.926 176.201 1546.53 183.184 1546.53 191.564 Z" transform="matrix(1, 0, 0, 1, 0, 0)" style="fill: rgb(79, 93, 115); white-space: pre;"/>
  <path d="M 724.901 313.364 L 724.901 439.404 L 704.161 439.404 L 704.161 357.844 C 704.161 351.164 704.571 342.991 705.391 333.324 L 705.031 333.324 C 703.744 338.831 702.604 342.784 701.611 345.184 L 663.991 439.404 L 649.581 439.404 L 611.871 345.884 C 610.818 343.131 609.704 338.944 608.531 333.324 L 608.181 333.324 C 608.648 338.357 608.881 346.587 608.881 358.014 L 608.881 439.404 L 589.551 439.404 L 589.551 313.364 L 618.991 313.364 L 652.121 397.304 C 654.641 403.751 656.284 408.554 657.051 411.714 L 657.491 411.714 C 659.658 405.094 661.414 400.174 662.761 396.954 L 696.511 313.364 L 724.901 313.364 ZM 828.215 380.864 L 828.215 439.404 L 808.445 439.404 L 808.445 425.344 L 808.095 425.344 C 801.882 436.124 792.768 441.514 780.755 441.514 C 771.908 441.514 764.982 439.111 759.975 434.304 C 754.962 429.504 752.455 423.147 752.455 415.234 C 752.455 398.241 762.242 388.337 781.815 385.524 L 808.535 381.744 C 808.535 368.917 802.438 362.504 790.245 362.504 C 779.525 362.504 769.858 366.194 761.245 373.574 L 761.245 355.734 C 770.738 350.107 781.695 347.294 794.115 347.294 C 816.848 347.294 828.215 358.484 828.215 380.864 Z M 808.535 403.014 L 808.535 395.194 L 789.635 397.834 C 783.775 398.594 779.365 400.014 776.405 402.094 C 773.445 404.174 771.965 407.821 771.965 413.034 C 771.965 416.847 773.328 419.967 776.055 422.394 C 778.782 424.827 782.428 426.044 786.995 426.044 C 793.208 426.044 798.352 423.861 802.425 419.494 C 806.498 415.127 808.535 409.634 808.535 403.014 ZM 910.798 349.494 L 910.798 368.824 C 908.338 366.891 904.792 365.924 900.158 365.924 C 894.125 365.924 889.088 368.651 885.048 374.104 C 881.002 379.551 878.978 386.961 878.978 396.334 L 878.978 439.404 L 858.588 439.404 L 858.588 349.404 L 878.978 349.404 L 878.978 367.944 L 879.328 367.944 C 881.322 361.617 884.385 356.684 888.518 353.144 C 892.645 349.597 897.258 347.824 902.358 347.824 C 906.052 347.824 908.865 348.381 910.798 349.494 ZM 971.928 392.824 L 1012.358 439.404 L 986.518 439.404 L 951.538 396.164 L 951.188 396.164 L 951.188 439.404 L 930.708 439.404 L 930.708 306.164 L 951.188 306.164 L 951.188 390.624 L 951.538 390.624 L 984.588 349.404 L 1009.108 349.404 L 971.928 392.824 ZM 1103.725 392.114 L 1103.725 399.944 L 1042.385 399.944 C 1042.618 408.264 1045.181 414.681 1050.075 419.194 C 1054.961 423.701 1061.685 425.954 1070.245 425.954 C 1079.851 425.954 1088.668 423.084 1096.695 417.344 L 1096.695 433.774 C 1088.495 438.934 1077.655 441.514 1064.175 441.514 C 1050.935 441.514 1040.548 437.427 1033.015 429.254 C 1025.488 421.081 1021.725 409.581 1021.725 394.754 C 1021.725 380.754 1025.871 369.344 1034.165 360.524 C 1042.451 351.704 1052.748 347.294 1065.055 347.294 C 1077.361 347.294 1086.885 351.251 1093.625 359.164 C 1100.358 367.071 1103.725 378.054 1103.725 392.114 Z M 1042.385 385.524 L 1084.045 385.524 C 1083.985 378.204 1082.255 372.507 1078.855 368.434 C 1075.455 364.361 1070.768 362.324 1064.795 362.324 C 1058.935 362.324 1053.968 364.464 1049.895 368.744 C 1045.821 373.017 1043.318 378.611 1042.385 385.524 ZM 1176.108 422.264 L 1176.108 438.434 C 1172.128 440.427 1166.885 441.424 1160.378 441.424 C 1142.918 441.424 1134.188 433.044 1134.188 416.284 L 1134.188 365.404 L 1119.158 365.404 L 1119.158 349.404 L 1134.188 349.404 L 1134.188 328.574 L 1154.578 322.774 L 1154.578 349.404 L 1176.108 349.404 L 1176.108 365.404 L 1154.578 365.404 L 1154.578 410.404 C 1154.578 415.731 1155.545 419.537 1157.478 421.824 C 1159.411 424.111 1162.635 425.254 1167.148 425.254 C 1170.601 425.254 1173.588 424.257 1176.108 422.264 ZM 1219.926 426.134 L 1219.576 426.134 L 1219.576 480.804 L 1199.186 480.804 L 1199.186 349.404 L 1219.576 349.404 L 1219.576 365.224 L 1219.926 365.224 C 1226.899 353.271 1237.096 347.294 1250.516 347.294 C 1261.943 347.294 1270.849 351.307 1277.236 359.334 C 1283.623 367.361 1286.816 378.144 1286.816 391.684 C 1286.816 406.684 1283.213 418.694 1276.006 427.714 C 1268.799 436.741 1258.956 441.254 1246.476 441.254 C 1234.989 441.254 1226.139 436.214 1219.926 426.134 Z M 1219.406 390.624 L 1219.406 401.784 C 1219.406 408.351 1221.499 413.917 1225.686 418.484 C 1229.873 423.057 1235.189 425.344 1241.636 425.344 C 1249.196 425.344 1255.129 422.397 1259.436 416.504 C 1263.743 410.617 1265.896 402.401 1265.896 391.854 C 1265.896 383.007 1263.889 376.081 1259.876 371.074 C 1255.863 366.061 1250.429 363.554 1243.576 363.554 C 1236.309 363.554 1230.463 366.131 1226.036 371.284 C 1221.616 376.444 1219.406 382.891 1219.406 390.624 ZM 1333.621 306.164 L 1333.621 439.404 L 1313.141 439.404 L 1313.141 306.164 L 1333.621 306.164 ZM 1434.742 380.864 L 1434.742 439.404 L 1414.972 439.404 L 1414.972 425.344 L 1414.622 425.344 C 1408.408 436.124 1399.295 441.514 1387.282 441.514 C 1378.435 441.514 1371.508 439.111 1366.502 434.304 C 1361.488 429.504 1358.982 423.147 1358.982 415.234 C 1358.982 398.241 1368.768 388.337 1388.342 385.524 L 1415.062 381.744 C 1415.062 368.917 1408.965 362.504 1396.772 362.504 C 1386.052 362.504 1376.385 366.194 1367.772 373.574 L 1367.772 355.734 C 1377.265 350.107 1388.222 347.294 1400.642 347.294 C 1423.375 347.294 1434.742 358.484 1434.742 380.864 Z M 1415.062 403.014 L 1415.062 395.194 L 1396.162 397.834 C 1390.302 398.594 1385.892 400.014 1382.932 402.094 C 1379.972 404.174 1378.492 407.821 1378.492 413.034 C 1378.492 416.847 1379.855 419.967 1382.582 422.394 C 1385.308 424.827 1388.955 426.044 1393.522 426.044 C 1399.735 426.044 1404.878 423.861 1408.952 419.494 C 1413.025 415.127 1415.062 409.634 1415.062 403.014 ZM 1529.545 417.524 L 1529.545 435.274 C 1522.332 439.434 1513.805 441.514 1503.965 441.514 C 1490.605 441.514 1479.825 437.337 1471.625 428.984 C 1463.418 420.637 1459.315 409.814 1459.315 396.514 C 1459.315 381.687 1463.725 369.777 1472.545 360.784 C 1481.365 351.791 1493.155 347.294 1507.915 347.294 C 1516.122 347.294 1523.358 348.731 1529.625 351.604 L 1529.625 370.584 C 1523.358 365.897 1516.678 363.554 1509.585 363.554 C 1500.972 363.554 1493.912 366.471 1488.405 372.304 C 1482.898 378.131 1480.145 385.761 1480.145 395.194 C 1480.145 404.514 1482.738 411.867 1487.925 417.254 C 1493.112 422.647 1500.068 425.344 1508.795 425.344 C 1516.122 425.344 1523.038 422.737 1529.545 417.524 ZM 1631.452 392.114 L 1631.452 399.944 L 1570.112 399.944 C 1570.345 408.264 1572.909 414.681 1577.802 419.194 C 1582.689 423.701 1589.412 425.954 1597.972 425.954 C 1607.579 425.954 1616.395 423.084 1624.422 417.344 L 1624.422 433.774 C 1616.222 438.934 1605.382 441.514 1591.902 441.514 C 1578.662 441.514 1568.275 437.427 1560.742 429.254 C 1553.215 421.081 1549.452 409.581 1549.452 394.754 C 1549.452 380.754 1553.599 369.344 1561.892 360.524 C 1570.179 351.704 1580.475 347.294 1592.782 347.294 C 1605.089 347.294 1614.612 351.251 1621.352 359.164 C 1628.085 367.071 1631.452 378.054 1631.452 392.114 Z M 1570.112 385.524 L 1611.772 385.524 C 1611.712 378.204 1609.982 372.507 1606.582 368.434 C 1603.182 364.361 1598.495 362.324 1592.522 362.324 C 1586.662 362.324 1581.695 364.464 1577.622 368.744 C 1573.549 373.017 1571.045 378.611 1570.112 385.524 Z" transform="matrix(1, 0, 0, 1, 0, 0)" style="fill: rgb(79, 93, 115); white-space: pre;"/>
  <path d="M 1517.91 401.506 L 1517.91 401.996 L 1515.94 401.996 L 1515.94 398.496 L 1517.83 398.496 L 1517.83 398.986 L 1516.52 398.986 L 1516.52 399.976 L 1517.73 399.976 L 1517.73 400.466 L 1516.52 400.466 L 1516.52 401.506 L 1517.91 401.506 ZM 1520.695 400.466 L 1520.695 401.996 L 1520.125 401.996 L 1520.125 400.586 C 1520.125 400.119 1519.959 399.886 1519.625 399.886 C 1519.452 399.886 1519.312 399.949 1519.205 400.076 C 1519.092 400.209 1519.035 400.373 1519.035 400.566 L 1519.035 401.996 L 1518.465 401.996 L 1518.465 399.496 L 1519.035 399.496 L 1519.035 399.916 L 1519.045 399.916 C 1519.232 399.596 1519.502 399.436 1519.855 399.436 C 1520.129 399.436 1520.335 399.526 1520.475 399.706 C 1520.622 399.879 1520.695 400.133 1520.695 400.466 ZM 1522.7 401.516 L 1522.7 401.966 C 1522.587 402.026 1522.44 402.056 1522.26 402.056 C 1521.773 402.056 1521.53 401.823 1521.53 401.356 L 1521.53 399.936 L 1521.11 399.936 L 1521.11 399.496 L 1521.53 399.496 L 1521.53 398.916 L 1522.1 398.756 L 1522.1 399.496 L 1522.7 399.496 L 1522.7 399.936 L 1522.1 399.936 L 1522.1 401.186 C 1522.1 401.339 1522.127 401.446 1522.18 401.506 C 1522.233 401.573 1522.323 401.606 1522.45 401.606 C 1522.543 401.606 1522.627 401.576 1522.7 401.516 ZM 1525.276 400.686 L 1525.276 400.896 L 1523.566 400.896 C 1523.572 401.129 1523.642 401.309 1523.776 401.436 C 1523.916 401.563 1524.106 401.626 1524.346 401.626 C 1524.612 401.626 1524.856 401.546 1525.076 401.386 L 1525.076 401.836 C 1524.849 401.983 1524.549 402.056 1524.176 402.056 C 1523.802 402.056 1523.512 401.943 1523.306 401.716 C 1523.099 401.489 1522.996 401.169 1522.996 400.756 C 1522.996 400.369 1523.109 400.053 1523.336 399.806 C 1523.569 399.559 1523.856 399.436 1524.196 399.436 C 1524.536 399.436 1524.799 399.546 1524.986 399.766 C 1525.179 399.986 1525.276 400.293 1525.276 400.686 Z M 1523.566 400.496 L 1524.726 400.496 C 1524.726 400.296 1524.676 400.139 1524.576 400.026 C 1524.482 399.913 1524.352 399.856 1524.186 399.856 C 1524.026 399.856 1523.889 399.916 1523.776 400.036 C 1523.662 400.156 1523.592 400.309 1523.566 400.496 ZM 1527.259 399.496 L 1527.259 400.036 C 1527.192 399.983 1527.092 399.956 1526.959 399.956 C 1526.792 399.956 1526.652 400.033 1526.539 400.186 C 1526.432 400.333 1526.379 400.536 1526.379 400.796 L 1526.379 401.996 L 1525.809 401.996 L 1525.809 399.496 L 1526.379 399.496 L 1526.379 400.016 C 1526.439 399.836 1526.526 399.696 1526.639 399.596 C 1526.752 399.503 1526.879 399.456 1527.019 399.456 C 1527.126 399.456 1527.206 399.469 1527.259 399.496 ZM 1530.621 399.496 L 1531.191 399.496 L 1530.071 402.396 C 1529.831 402.916 1529.501 403.176 1529.081 403.176 C 1528.961 403.176 1528.861 403.166 1528.781 403.146 L 1528.781 402.666 C 1528.874 402.699 1528.958 402.716 1529.031 402.716 C 1529.238 402.716 1529.394 402.613 1529.501 402.406 L 1529.671 401.996 L 1528.671 399.496 L 1529.301 399.496 L 1529.901 401.316 C 1529.908 401.336 1529.921 401.396 1529.941 401.496 L 1529.951 401.496 C 1529.964 401.456 1529.981 401.396 1530.001 401.316 L 1530.621 399.496 ZM 1532.643 402.056 C 1532.257 402.056 1531.947 401.939 1531.713 401.706 C 1531.487 401.473 1531.373 401.163 1531.373 400.776 C 1531.373 400.356 1531.493 400.029 1531.733 399.796 C 1531.973 399.556 1532.297 399.436 1532.703 399.436 C 1533.09 399.436 1533.393 399.553 1533.613 399.786 C 1533.833 400.013 1533.943 400.329 1533.943 400.736 C 1533.943 401.136 1533.827 401.456 1533.593 401.696 C 1533.353 401.936 1533.037 402.056 1532.643 402.056 Z M 1532.663 399.886 C 1532.443 399.886 1532.27 399.963 1532.143 400.116 C 1532.017 400.276 1531.953 400.489 1531.953 400.756 C 1531.953 401.023 1532.017 401.229 1532.143 401.376 C 1532.277 401.529 1532.45 401.606 1532.663 401.606 C 1532.89 401.606 1533.063 401.533 1533.183 401.386 C 1533.303 401.239 1533.363 401.026 1533.363 400.746 C 1533.363 400.473 1533.303 400.263 1533.183 400.116 C 1533.063 399.963 1532.89 399.886 1532.663 399.886 ZM 1536.696 399.496 L 1536.696 401.996 L 1536.126 401.996 L 1536.126 401.596 L 1536.116 401.596 C 1535.956 401.903 1535.703 402.056 1535.356 402.056 C 1534.763 402.056 1534.466 401.699 1534.466 400.986 L 1534.466 399.496 L 1535.036 399.496 L 1535.036 400.936 C 1535.036 401.383 1535.21 401.606 1535.556 401.606 C 1535.723 401.606 1535.86 401.543 1535.966 401.416 C 1536.073 401.296 1536.126 401.136 1536.126 400.936 L 1536.126 399.496 L 1536.696 399.496 ZM 1538.881 399.496 L 1538.881 400.036 C 1538.814 399.983 1538.714 399.956 1538.581 399.956 C 1538.414 399.956 1538.274 400.033 1538.161 400.186 C 1538.054 400.333 1538.001 400.536 1538.001 400.796 L 1538.001 401.996 L 1537.431 401.996 L 1537.431 399.496 L 1538.001 399.496 L 1538.001 400.016 C 1538.061 399.836 1538.148 399.696 1538.261 399.596 C 1538.374 399.503 1538.501 399.456 1538.641 399.456 C 1538.748 399.456 1538.828 399.469 1538.881 399.496 ZM 1541.973 401.516 L 1541.973 401.966 C 1541.859 402.026 1541.713 402.056 1541.533 402.056 C 1541.046 402.056 1540.803 401.823 1540.803 401.356 L 1540.803 399.936 L 1540.383 399.936 L 1540.383 399.496 L 1540.803 399.496 L 1540.803 398.916 L 1541.373 398.756 L 1541.373 399.496 L 1541.973 399.496 L 1541.973 399.936 L 1541.373 399.936 L 1541.373 401.186 C 1541.373 401.339 1541.399 401.446 1541.453 401.506 C 1541.506 401.573 1541.596 401.606 1541.723 401.606 C 1541.816 401.606 1541.899 401.576 1541.973 401.516 ZM 1544.548 400.686 L 1544.548 400.896 L 1542.838 400.896 C 1542.845 401.129 1542.915 401.309 1543.048 401.436 C 1543.188 401.563 1543.378 401.626 1543.618 401.626 C 1543.885 401.626 1544.128 401.546 1544.348 401.386 L 1544.348 401.836 C 1544.122 401.983 1543.822 402.056 1543.448 402.056 C 1543.075 402.056 1542.785 401.943 1542.578 401.716 C 1542.372 401.489 1542.268 401.169 1542.268 400.756 C 1542.268 400.369 1542.382 400.053 1542.608 399.806 C 1542.842 399.559 1543.128 399.436 1543.468 399.436 C 1543.808 399.436 1544.072 399.546 1544.258 399.766 C 1544.452 399.986 1544.548 400.293 1544.548 400.686 Z M 1542.838 400.496 L 1543.998 400.496 C 1543.998 400.296 1543.948 400.139 1543.848 400.026 C 1543.755 399.913 1543.625 399.856 1543.458 399.856 C 1543.298 399.856 1543.162 399.916 1543.048 400.036 C 1542.935 400.156 1542.865 400.309 1542.838 400.496 ZM 1546.552 399.496 L 1547.172 399.496 L 1546.342 400.756 L 1547.162 401.996 L 1546.502 401.996 L 1546.062 401.226 C 1546.035 401.179 1546.002 401.119 1545.962 401.046 C 1545.955 401.059 1545.919 401.119 1545.852 401.226 L 1545.412 401.996 L 1544.752 401.996 L 1545.602 400.766 L 1544.802 399.496 L 1545.452 399.496 L 1545.892 400.306 C 1545.925 400.366 1545.955 400.429 1545.982 400.496 L 1545.992 400.496 L 1546.552 399.496 ZM 1548.904 401.516 L 1548.904 401.966 C 1548.791 402.026 1548.644 402.056 1548.464 402.056 C 1547.978 402.056 1547.734 401.823 1547.734 401.356 L 1547.734 399.936 L 1547.314 399.936 L 1547.314 399.496 L 1547.734 399.496 L 1547.734 398.916 L 1548.304 398.756 L 1548.304 399.496 L 1548.904 399.496 L 1548.904 399.936 L 1548.304 399.936 L 1548.304 401.186 C 1548.304 401.339 1548.331 401.446 1548.384 401.506 C 1548.438 401.573 1548.528 401.606 1548.654 401.606 C 1548.748 401.606 1548.831 401.576 1548.904 401.516 ZM 1552.982 400.456 L 1552.982 401.996 L 1552.412 401.996 L 1552.412 400.626 C 1552.412 400.133 1552.249 399.886 1551.922 399.886 C 1551.756 399.886 1551.616 399.959 1551.502 400.106 C 1551.389 400.246 1551.332 400.426 1551.332 400.646 L 1551.332 401.996 L 1550.762 401.996 L 1550.762 398.296 L 1551.332 398.296 L 1551.332 399.916 L 1551.342 399.916 C 1551.529 399.596 1551.799 399.436 1552.152 399.436 C 1552.706 399.436 1552.982 399.776 1552.982 400.456 ZM 1555.79 400.686 L 1555.79 400.896 L 1554.08 400.896 C 1554.086 401.129 1554.156 401.309 1554.29 401.436 C 1554.43 401.563 1554.62 401.626 1554.86 401.626 C 1555.126 401.626 1555.37 401.546 1555.59 401.386 L 1555.59 401.836 C 1555.363 401.983 1555.063 402.056 1554.69 402.056 C 1554.316 402.056 1554.026 401.943 1553.82 401.716 C 1553.613 401.489 1553.51 401.169 1553.51 400.756 C 1553.51 400.369 1553.623 400.053 1553.85 399.806 C 1554.083 399.559 1554.37 399.436 1554.71 399.436 C 1555.05 399.436 1555.313 399.546 1555.5 399.766 C 1555.693 399.986 1555.79 400.293 1555.79 400.686 Z M 1554.08 400.496 L 1555.24 400.496 C 1555.24 400.296 1555.19 400.139 1555.09 400.026 C 1554.996 399.913 1554.866 399.856 1554.7 399.856 C 1554.54 399.856 1554.403 399.916 1554.29 400.036 C 1554.176 400.156 1554.106 400.309 1554.08 400.496 ZM 1557.773 399.496 L 1557.773 400.036 C 1557.707 399.983 1557.607 399.956 1557.473 399.956 C 1557.307 399.956 1557.167 400.033 1557.053 400.186 C 1556.947 400.333 1556.893 400.536 1556.893 400.796 L 1556.893 401.996 L 1556.323 401.996 L 1556.323 399.496 L 1556.893 399.496 L 1556.893 400.016 C 1556.953 399.836 1557.04 399.696 1557.153 399.596 C 1557.267 399.503 1557.393 399.456 1557.533 399.456 C 1557.64 399.456 1557.72 399.469 1557.773 399.496 ZM 1560.248 400.686 L 1560.248 400.896 L 1558.538 400.896 C 1558.545 401.129 1558.615 401.309 1558.748 401.436 C 1558.888 401.563 1559.078 401.626 1559.318 401.626 C 1559.585 401.626 1559.828 401.546 1560.048 401.386 L 1560.048 401.836 C 1559.821 401.983 1559.521 402.056 1559.148 402.056 C 1558.775 402.056 1558.485 401.943 1558.278 401.716 C 1558.071 401.489 1557.968 401.169 1557.968 400.756 C 1557.968 400.369 1558.081 400.053 1558.308 399.806 C 1558.541 399.559 1558.828 399.436 1559.168 399.436 C 1559.508 399.436 1559.771 399.546 1559.958 399.766 C 1560.151 399.986 1560.248 400.293 1560.248 400.686 Z M 1558.538 400.496 L 1559.698 400.496 C 1559.698 400.296 1559.648 400.139 1559.548 400.026 C 1559.455 399.913 1559.325 399.856 1559.158 399.856 C 1558.998 399.856 1558.861 399.916 1558.748 400.036 C 1558.635 400.156 1558.565 400.309 1558.538 400.496 Z" transform="matrix(1, 0, 0, 1, 0, 0)" style="fill: rgb(79, 93, 115); white-space: pre;"/>
</svg>